<svg height="498" width="1920" xmlns="http://www.w3.org/2000/svg"><clipPath id="a"><path d="M0 0h1920v498H0z" transform="translate(0 8772)"/></clipPath><clipPath id="b"><path d="M0 0h1920v1121H0z" transform="translate(0 8670)"/></clipPath><g clip-path="url(#a)" transform="translate(0 -8772)"><g clip-path="url(#b)" transform="translate(0 -392)"><path d="M738.35 7500.124L-898.52 9021.707M743.631 7504.804l-1636.87 1521.584M748.912 7509.484l-1636.87 1521.583M754.193 7514.164l-1636.87 1521.583M759.474 7518.844l-1636.87 1521.583M764.755 7523.524l-1636.87 1521.583m1642.15-1516.903l-1636.87 1521.583m1642.15-1516.903l-1636.87 1521.583M780.597 7537.564l-1636.87 1521.583m1642.15-1516.903l-1636.87 1521.583M791.158 7546.923l-1636.87 1521.584M796.44 7551.603L-840.43 9073.187M801.72 7556.283L-835.15 9077.867M807 7560.963L-829.87 9082.546M812.282 7565.642l-1636.87 1521.584M817.563 7570.323l-1636.87 1521.583m1642.15-1516.903l-1636.87 1521.584M828.124 7579.683l-1636.87 1521.583M833.405 7584.363l-1636.87 1521.584M838.686 7589.043l-1636.87 1521.583m1642.15-1516.904l-1636.87 1521.584M849.247 7598.402l-1636.87 1521.583M854.528 7603.082l-1636.87 1521.584M859.809 7607.762l-1636.87 1521.583M865.09 7612.442L-771.78 9134.025M870.371 7617.122l-1636.87 1521.583m1642.15-1516.903l-1636.87 1521.584M880.932 7626.482l-1636.87 1521.583m1642.15-1516.904l-1636.87 1521.584M891.494 7635.842l-1636.87 1521.583m1642.15-1516.904l-1636.87 1521.584M902.055 7645.201l-1636.87 1521.584M907.336 7649.881l-1636.87 1521.584M912.617 7654.561l-1636.87 1521.584M917.898 7659.24l-1636.87 1521.584M923.179 7663.92l-1636.87 1521.584M928.46 7668.601L-708.412 9190.185M933.74 7673.281L-703.13 9194.865M939.02 7677.96L-697.85 9199.545M944.302 7682.641l-1636.87 1521.583M949.583 7687.32l-1636.87 1521.584M954.863 7692l-1636.87 1521.584M960.144 7696.68l-1636.87 1521.583M965.425 7701.36l-1636.87 1521.584M970.706 7706.04l-1636.87 1521.583M975.987 7710.72l-1636.87 1521.583M981.267 7715.4l-1636.87 1521.584M986.548 7720.08l-1636.87 1521.584M991.829 7724.76l-1636.87 1521.583M997.11 7729.44L-639.76 9251.022M1002.39 7734.12L-634.48 9255.703M1007.671 7738.8l-1636.87 1521.583m1642.151-1516.904l-1636.87 1521.584m1642.151-1516.904l-1636.87 1521.583m1642.151-1516.903l-1636.87 1521.583m1642.151-1516.903l-1636.87 1521.583m1642.15-1516.904l-1636.87 1521.584M1039.356 7766.88l-1636.87 1521.583m1642.151-1516.904l-1636.87 1521.583m1642.151-1516.903l-1636.87 1521.583m1642.15-1516.904l-1636.87 1521.584M1060.48 7785.599L-576.39 9307.182m1642.15-1516.904L-571.11 9311.862m1642.15-1516.904L-565.83 9316.54m1642.152-1516.902l-1636.87 1521.584m1642.151-1516.904L-555.267 9325.9m1642.151-1516.903l-1636.87 1521.584m1642.15-1516.903L-544.706 9335.26m1642.151-1516.902l-1636.87 1521.584m1642.151-1516.904L-534.144 9344.62m1642.151-1516.902l-1636.87 1521.584m1642.151-1516.904L-523.582 9353.98m1642.15-1516.903l-1636.87 1521.584M1123.85 7841.757L-513.022 9363.34M1129.13 7846.437L-507.74 9368.02m1642.151-1516.903L-502.459 9372.7m1642.151-1516.903L-497.178 9377.38m1642.15-1516.902L-491.898 9382.06m1642.151-1516.903l-1636.87 1521.584m1642.151-1516.904L-481.336 9391.42m1642.15-1516.903L-476.056 9396.1m1642.151-1516.904L-470.775 9400.78m1642.152-1516.903L-465.493 9405.46m1642.15-1516.904L-460.213 9410.14m1642.151-1516.904l-1636.87 1521.583M1187.22 7897.916L-449.65 9419.5M1192.5 7902.596L-444.37 9424.179m1642.15-1516.903L-439.09 9428.86m1642.15-1516.904L-433.81 9433.539m1642.152-1516.903L-428.528 9438.22m1642.151-1516.904l-1636.87 1521.583m1642.15-1516.904L-417.967 9447.58m1642.152-1516.904l-1636.87 1521.583m1642.15-1516.904L-407.405 9456.94m1642.151-1516.905l-1636.87 1521.583m1642.151-1516.903l-1636.87 1521.583m1642.151-1516.903l-1636.87 1521.583m1642.15-1516.903L-386.282 9475.66m1642.151-1516.905l-1636.87 1521.583M1261.15 7963.435L-375.72 9485.02m1642.15-1516.905L-370.44 9489.698m1642.151-1516.904l-1636.87 1521.584m1642.151-1516.904l-1636.87 1521.584m1642.152-1516.904l-1636.87 1521.584m1642.15-1516.904l-1636.87 1521.584m1642.151-1516.904l-1636.87 1521.583m1642.151-1516.903l-1636.87 1521.584m1642.15-1516.904l-1636.87 1521.584m1642.151-1516.904l-1636.87 1521.584m1642.151-1516.904l-1636.87 1521.583m1642.151-1516.903l-1636.87 1521.583M1324.52 8019.594L-312.35 9541.177M1329.8 8024.273L-307.07 9545.857m1642.152-1516.903l-1636.87 1521.583m1642.15-1516.904l-1636.87 1521.584m1642.151-1516.904l-1636.87 1521.583m1642.151-1516.903l-1636.87 1521.584m1642.15-1516.903l-1636.87 1521.583m1642.151-1516.904l-1636.87 1521.584m1642.151-1516.904l-1636.87 1521.583m1642.15-1516.904l-1636.87 1521.584m1642.152-1516.903l-1636.87 1521.583m1642.15-1516.904l-1636.87 1521.584M1387.89 8075.753L-248.98 9597.336m1642.15-1516.904L-243.7 9602.016m1642.151-1516.904l-1636.87 1521.584m1642.151-1516.904l-1636.87 1521.583m1642.15-1516.904l-1636.87 1521.584m1642.151-1516.903l-1636.87 1521.584m1642.151-1516.904l-1636.87 1521.583m1642.151-1516.903l-1636.87 1521.584m1642.151-1516.904l-1636.87 1521.583m1642.151-1516.903l-1636.87 1521.583m1642.15-1516.904l-1636.87 1521.584m1642.152-1516.903l-1636.87 1521.583M1451.26 8131.911L-185.61 9653.495M1456.54 8136.59L-180.33 9658.175M1461.82 8141.27L-175.05 9662.854m1642.151-1516.903l-1636.87 1521.584m1642.151-1516.904l-1636.87 1521.584M1477.663 8155.31l-1636.87 1521.584m1642.15-1516.904l-1636.87 1521.584M1488.225 8164.67l-1636.87 1521.584m1642.15-1516.904l-1636.87 1521.584M1498.786 8174.03l-1636.87 1521.583M1504.067 8178.71l-1636.87 1521.584M1509.348 8183.39l-1636.87 1521.583M1514.629 8188.07l-1636.87 1521.583M1519.91 8192.75L-116.96 9714.335M1525.19 8197.43L-111.68 9719.014M1530.47 8202.11L-106.4 9723.693M1535.751 8206.79l-1636.87 1521.583M1541.033 8211.47L-95.837 9733.053M1546.314 8216.15L-90.556 9737.733m1642.15-1516.903L-85.276 9742.412M1556.876 8225.51L-79.994 9747.092m1642.15-1516.902L-74.714 9751.772m1642.151-1516.903L-69.433 9756.452m1642.15-1516.902L-64.153 9761.132M1577.998 8244.23L-58.872 9765.812M1583.279 8248.91L-53.591 9770.492M1588.56 8253.589L-48.31 9775.172m1642.151-1516.903L-43.029 9779.853m1642.151-1516.904L-37.748 9784.532m1642.15-1516.904L-32.468 9789.212m1642.151-1516.904L-27.187 9793.89m1642.151-1516.902L-21.906 9798.572m1642.151-1516.904L-16.625 9803.25m1642.15-1516.902L-11.345 9807.932m1642.151-1516.903L-6.064 9812.612m1642.151-1516.904L-.783 9817.292m1642.151-1516.904L4.498 9821.97m1642.15-1516.903L9.778 9826.651M1651.93 8309.748L15.06 9831.33m1642.15-1516.903L20.34 9836.011m1642.151-1516.904L25.621 9840.691m1642.152-1516.904L30.903 9845.371m1642.15-1516.904L36.183 9850.051m1642.15-1516.904L41.463 9854.731m1642.151-1516.904L46.744 9859.411m1642.151-1516.904L52.025 9864.091m1642.151-1516.904L57.306 9868.77m1642.151-1516.903L62.587 9873.45m1642.15-1516.904L67.867 9878.13m1642.152-1516.903L73.149 9882.81M1715.3 8365.906L78.43 9887.49m1642.15-1516.904L83.71 9892.169m1642.151-1516.903L88.991 9896.85m1642.151-1516.904L94.272 9901.529m1642.15-1516.903L99.552 9906.21m1642.151-1516.904L104.833 9910.889m1642.151-1516.903L110.114 9915.57m1642.151-1516.904L115.395 9920.249m1642.15-1516.904L120.675 9924.93m1642.152-1516.904L125.957 9929.609m1642.15-1516.904L131.237 9934.29m1642.151-1516.905L136.518 9938.969m1642.151-1516.904L141.799 9943.648M1783.95 8426.745L147.08 9948.328m1642.15-1516.903L152.36 9953.01m1642.15-1516.905L157.64 9957.688m1642.152-1516.903L162.922 9962.37m1642.151-1516.905L168.203 9967.048m1642.151-1516.903L173.484 9971.728m1642.151-1516.903L178.765 9976.408m1642.151-1516.903L184.046 9981.088m1642.15-1516.904L189.326 9985.768m1642.151-1516.904L194.607 9990.447m1642.151-1516.903L199.888 9995.128m1642.15-1516.903L205.168 9999.808m1642.151-1516.904l-1636.87 1521.584M1852.6 8487.584L215.73 10009.168m1642.151-1516.904l-1636.87 1521.584m1642.151-1516.904l-1636.87 1521.583m1642.15-1516.904l-1636.87 1521.584m1642.152-1516.903l-1636.87 1521.583m1642.15-1516.904l-1636.87 1521.584m1642.151-1516.904l-1636.87 1521.583m1642.152-1516.903l-1636.87 1521.584m1642.149-1516.903l-1636.87 1521.583m1642.151-1516.904l-1636.87 1521.584m1642.151-1516.904l-1636.87 1521.583M1910.69 8539.063L273.818 10060.647M1915.97 8543.743L279.1 10065.326m1642.15-1516.903L284.38 10070.006m1642.151-1516.904l-1636.87 1521.584m1642.152-1516.903l-1636.87 1521.583m1642.15-1516.904l-1636.87 1521.584m1642.151-1516.904l-1636.87 1521.583m1642.151-1516.902l-1636.87 1521.583m1642.15-1516.904l-1636.87 1521.584m1642.151-1516.904l-1636.87 1521.584m1642.151-1516.904l-1636.87 1521.583m1642.151-1516.903l-1636.87 1521.584m1642.151-1516.904l-1636.87 1521.583M1979.34 8599.901L342.47 10121.485m1642.15-1516.903L347.75 10126.165m1642.151-1516.904l-1636.87 1521.584M1995.182 8613.94l-1636.87 1521.584m1642.15-1516.903l-1636.87 1521.584m1642.151-1516.903l-1636.87 1521.583m1642.151-1516.904l-1636.87 1521.584M2016.305 8632.66l-1636.87 1521.584m1642.151-1516.903l-1636.87 1521.584M2026.867 8642.02l-1636.87 1521.584M2032.148 8646.7l-1636.87 1521.584m1642.15-1516.904l-1636.87 1521.584M2042.71 8656.06L405.84 10177.644M2047.99 8660.74L411.12 10182.324M2053.27 8665.42L416.4 10187.003M2058.552 8670.1l-1636.87 1521.584m1642.15-1516.904l-1636.87 1521.584M2069.113 8679.46l-1636.87 1521.584M2074.394 8684.14l-1636.87 1521.584M2079.675 8688.82l-1636.87 1521.583M2084.956 8693.5l-1636.87 1521.583m1642.15-1516.903l-1636.87 1521.583M2095.518 8702.86l-1636.87 1521.583m1642.15-1516.903l-1636.87 1521.583M2106.08 8712.219L469.208 10233.802M2111.359 8716.9l-1636.87 1521.583M2116.64 8721.58L479.77 10243.163M2121.921 8726.26l-1636.87 1521.583m1642.151-1516.904l-1636.87 1521.583m1642.15-1516.904l-1636.87 1521.584m1642.152-1516.903l-1636.87 1521.583m1642.15-1516.904l-1636.87 1521.584m1642.151-1516.904l-1636.87 1521.584m1642.152-1516.904l-1636.87 1521.584m1642.15-1516.904l-1636.87 1521.584m1642.15-1516.904l-1636.87 1521.584m1642.152-1516.903l-1636.87 1521.583M2174.73 8773.058L537.86 10294.642m1642.15-1516.904L543.14 10299.321m1642.15-1516.903L548.42 10304m1642.152-1516.902L553.702 10308.68m1642.151-1516.902L558.983 10313.36m1642.15-1516.903l-1636.87 1521.584m1642.152-1516.903L569.545 10322.72m1642.15-1516.903l-1636.87 1521.584m1642.15-1516.903L580.105 10332.08m1642.151-1516.903l-1636.87 1521.584m1642.151-1516.904l-1636.87 1521.584m1642.151-1516.904l-1636.87 1521.584m1642.151-1516.904L601.229 10350.8M2243.38 8833.897L606.51 10355.481m1642.15-1516.904L611.79 10360.16m1642.151-1516.904L617.071 10364.84m1642.151-1516.904l-1636.87 1521.583m1642.152-1516.903L627.634 10374.2m1642.149-1516.903L632.913 10378.88m1642.151-1516.904L638.194 10383.56m1642.151-1516.904l-1636.87 1521.583m1642.151-1516.903L648.756 10392.92m1642.151-1516.904l-1636.87 1521.583m1642.151-1516.903l-1636.87 1521.583m1642.151-1516.903l-1636.87 1521.583M2306.75 8890.056L669.88 10411.639m1642.15-1516.904L675.16 10416.32m1642.151-1516.905l-1636.87 1521.583m1642.151-1516.902l-1636.87 1521.583m1642.15-1516.904L691.002 10430.36m1642.151-1516.905L696.283 10435.04m1642.151-1516.905L701.564 10439.72m1642.151-1516.905L706.845 10444.4m1642.151-1516.905l-1636.87 1521.583m1642.15-1516.904l-1636.87 1521.584m1642.152-1516.903l-1636.87 1521.583m1642.15-1516.904l-1636.87 1521.584M2370.12 8946.214L733.248 10467.797M2375.4 8950.894L738.528 10472.478M2380.68 8955.575L743.81 10477.158m1642.151-1516.904l-1636.87 1521.584m1642.152-1516.903l-1636.87 1521.583m1642.15-1516.904l-1636.87 1521.584m1642.151-1516.904l-1636.87 1521.583m1642.151-1516.904l-1636.87 1521.584m1642.151-1516.903l-1636.87 1521.583m1642.151-1516.904l-1636.87 1521.584m1642.15-1516.904l-1636.87 1521.584m1642.152-1516.904l-1636.87 1521.584m1642.15-1516.903l-1636.87 1521.583M2438.77 9007.053L801.9 10528.637m1642.15-1516.904L807.18 10533.317m1642.151-1516.904l-1636.87 1521.584m1642.151-1516.904l-1636.87 1521.583m1642.151-1516.903l-1636.87 1521.583m1642.151-1516.903l-1636.87 1521.583m1642.151-1516.903l-1636.87 1521.583m1642.15-1516.904l-1636.87 1521.584m1642.151-1516.904l-1636.87 1521.583m1642.151-1516.902l-1636.87 1521.583m1642.15-1516.903l-1636.87 1521.583m1642.151-1516.904l-1636.87 1521.584M2502.14 9063.213L865.27 10584.796m1642.15-1516.904L870.55 10589.476M2512.7 9072.572L875.83 10594.155m1642.151-1516.904l-1636.87 1521.584m1642.152-1516.903l-1636.87 1521.583m1642.151-1516.904l-1636.87 1521.584m1642.15-1516.904l-1636.87 1521.584m1642.15-1516.904l-1636.87 1521.584m1642.152-1516.903l-1636.87 1521.583m1642.15-1516.904l-1636.87 1521.584m1642.151-1516.904l-1636.87 1521.583m1642.151-1516.903l-1636.87 1521.584m1642.151-1516.904l-1636.87 1521.583M2570.79 9124.05L933.92 10645.635M2576.07 9128.73L939.2 10650.314M2581.352 9133.41l-1636.87 1521.584m1642.15-1516.904l-1636.87 1521.584m1642.15-1516.904l-1636.87 1521.584M2597.194 9147.45l-1636.87 1521.584m1642.15-1516.904l-1636.87 1521.584M2607.755 9156.81l-1636.87 1521.584M2613.036 9161.49l-1636.87 1521.583M2618.317 9166.17l-1636.87 1521.584M2623.598 9170.85l-1636.87 1521.583m1642.15-1516.903l-1636.87 1521.583M2634.16 9180.21L997.29 10701.793M2639.44 9184.89l-1636.87 1521.583M2644.72 9189.57l-1636.87 1521.583M2650.001 9194.25l-1636.87 1521.583M2655.283 9198.93l-1636.87 1521.583m1642.15-1516.903l-1636.87 1521.583m1642.151-1516.904l-1636.87 1521.583M2671.125 9212.97l-1636.87 1521.583m1642.151-1516.904l-1636.87 1521.583m1642.151-1516.903l-1636.87 1521.583m1642.15-1516.904l-1636.87 1521.584m1642.152-1516.904l-1636.87 1521.584M2697.53 9236.368l-1636.87 1521.584m1642.15-1516.904l-1636.87 1521.584m1642.15-1516.904l-1636.87 1521.584m1642.151-1516.904l-1636.87 1521.584m1642.151-1516.904l-1636.87 1521.584m1642.151-1516.904l-1636.87 1521.583m1642.151-1516.903l-1636.87 1521.584m1642.151-1516.904l-1636.87 1521.583m1642.15-1516.904l-1636.87 1521.584m1642.151-1516.904l-1636.87 1521.583m1642.151-1516.903l-1636.87 1521.584m1642.15-1516.903l-1636.87 1521.583m1642.151-1516.904l-1636.87 1521.584" fill="none" opacity=".2" stroke="#fff" stroke-miterlimit="10" stroke-width=".4"/></g></g></svg>